<svg width="48" height="48" viewBox="0 0 48 48" fill="none" xmlns="http://www.w3.org/2000/svg">
<g clipPath="url(#clip0_2173_9603)">
<rect width="48" height="48" rx="24" fill="#F7F7F7"/>
<path d="M13.8634 12.9454H6.87598V35.3784H13.8634V12.9454Z" fill="#F5F5F5"/>
<path d="M13.8628 12.9454H10.3691V35.3169H13.8628V12.9454Z" fill="#EBEBEB"/>
<path d="M10.1422 10.7418H7.6748V12.9439H10.1422V10.7418Z" fill="#F5F5F5"/>
<path d="M10.141 10.7418H9.55273V12.9439H10.141V10.7418Z" fill="#EBEBEB"/>
<path d="M6.29492 12.9447V12.8165H14.0701V12.9447" fill="#E0E0E0"/>
<path d="M8.84608 13.9058H8.25488V15.1694H8.84608V13.9058Z" fill="#FAFAFA"/>
<path d="M10.3697 15.6644C10.3697 15.6775 9.58767 15.6892 8.6221 15.6892C7.65653 15.6892 6.87598 15.6775 6.87598 15.6644C6.87598 15.6512 7.65798 15.641 8.6221 15.641C9.58623 15.641 10.3697 15.6512 10.3697 15.6644Z" fill="#E0E0E0"/>
<path d="M12.3724 13.9058H11.7812V15.1694H12.3724V13.9058Z" fill="#E0E0E0"/>
<path d="M13.8941 15.6644C13.8941 15.6775 13.1121 15.6892 12.148 15.6892C11.1838 15.6892 10.4004 15.6775 10.4004 15.6644C10.4004 15.6512 11.1824 15.641 12.148 15.641C13.1135 15.641 13.8941 15.6512 13.8941 15.6644Z" fill="#E0E0E0"/>
<path d="M12.3724 16.4142H11.7812V17.6778H12.3724V16.4142Z" fill="#E0E0E0"/>
<path d="M13.8941 18.1725C13.8941 18.1857 13.1121 18.1974 12.148 18.1974C11.1838 18.1974 10.4004 18.1857 10.4004 18.1725C10.4004 18.1594 11.1824 18.1492 12.148 18.1492C13.1135 18.1492 13.8941 18.1594 13.8941 18.1725Z" fill="#E0E0E0"/>
<path d="M12.3724 18.997H11.7812V20.2606H12.3724V18.997Z" fill="#E0E0E0"/>
<path d="M13.8941 20.7568C13.8941 20.7699 13.1121 20.7801 12.148 20.7801C11.1838 20.7801 10.4004 20.7699 10.4004 20.7568C10.4004 20.7436 11.1824 20.7334 12.148 20.7334C13.1135 20.7334 13.8941 20.7436 13.8941 20.7568Z" fill="#E0E0E0"/>
<path d="M12.3724 21.5814H11.7812V22.845H12.3724V21.5814Z" fill="#E0E0E0"/>
<path d="M13.8941 23.3412C13.8941 23.3543 13.1121 23.3646 12.148 23.3646C11.1838 23.3646 10.4004 23.3543 10.4004 23.3412C10.4004 23.328 11.1824 23.3163 12.148 23.3163C13.1135 23.3163 13.8941 23.328 13.8941 23.3412Z" fill="#E0E0E0"/>
<path d="M12.3724 24.0926H11.7812V25.3562H12.3724V24.0926Z" fill="#E0E0E0"/>
<path d="M13.8941 25.8521C13.8941 25.8653 13.1121 25.8769 12.148 25.8769C11.1838 25.8769 10.4004 25.8653 10.4004 25.8521C10.4004 25.839 11.1824 25.8287 12.148 25.8287C13.1135 25.8287 13.8941 25.8375 13.8941 25.8521Z" fill="#E0E0E0"/>
<path d="M12.3724 26.6124H11.7812V27.876H12.3724V26.6124Z" fill="#E0E0E0"/>
<path d="M12.3724 29.1658H11.7812V30.4294H12.3724V29.1658Z" fill="#E0E0E0"/>
<path d="M13.8941 28.3707C13.8941 28.3838 13.1121 28.3955 12.148 28.3955C11.1838 28.3955 10.4004 28.3838 10.4004 28.3707C10.4004 28.3575 11.1824 28.3473 12.148 28.3473C13.1135 28.3473 13.8941 28.3575 13.8941 28.3707Z" fill="#E0E0E0"/>
<path d="M8.84608 16.4524H8.25488V17.716H8.84608V16.4524Z" fill="#FAFAFA"/>
<path d="M10.3696 18.2107C10.3696 18.2238 9.58764 18.2355 8.62206 18.2355C7.65649 18.2355 6.87305 18.2238 6.87305 18.2107C6.87305 18.1975 7.65505 18.1873 8.61917 18.1873C9.5833 18.1873 10.3696 18.1975 10.3696 18.2107Z" fill="#E0E0E0"/>
<path d="M8.84608 18.9985H8.25488V20.2621H8.84608V18.9985Z" fill="#FAFAFA"/>
<path d="M10.3696 20.7582C10.3696 20.7714 9.58764 20.7816 8.62206 20.7816C7.65649 20.7816 6.87305 20.7714 6.87305 20.7582C6.87305 20.7451 7.65505 20.7334 8.61917 20.7334C9.5833 20.7334 10.3696 20.7451 10.3696 20.7582Z" fill="#E0E0E0"/>
<path d="M8.84608 21.5446H8.25488V22.8082H8.84608V21.5446Z" fill="#FAFAFA"/>
<path d="M10.3696 23.3043C10.3696 23.3175 9.58764 23.3277 8.62206 23.3277C7.65649 23.3277 6.87305 23.3175 6.87305 23.3043C6.87305 23.2912 7.65505 23.2795 8.61917 23.2795C9.5833 23.2795 10.3696 23.2912 10.3696 23.3043Z" fill="#E0E0E0"/>
<path d="M8.84608 24.0926H8.25488V25.3562H8.84608V24.0926Z" fill="#FAFAFA"/>
<path d="M10.3696 25.8521C10.3696 25.8653 9.58764 25.8769 8.62206 25.8769C7.65649 25.8769 6.87305 25.8638 6.87305 25.8521C6.87305 25.8404 7.65505 25.8287 8.61917 25.8287C9.5833 25.8287 10.3696 25.8375 10.3696 25.8521Z" fill="#E0E0E0"/>
<path d="M8.84608 26.6387H8.25488V27.9023H8.84608V26.6387Z" fill="#FAFAFA"/>
<path d="M10.3697 28.397C10.3697 28.4101 9.58767 28.4218 8.6221 28.4218C7.65653 28.4218 6.87598 28.4101 6.87598 28.397C6.87598 28.3838 7.65798 28.3736 8.6221 28.3736C9.58623 28.3736 10.3697 28.3838 10.3697 28.397Z" fill="#E0E0E0"/>
<path d="M8.84608 29.1848H8.25488V30.4484H8.84608V29.1848Z" fill="#FAFAFA"/>
<path d="M39.4532 17.7009H32.4658V40.1339H39.4532V17.7009Z" fill="#F5F5F5"/>
<path d="M39.4566 17.7009H35.9629V40.0724H39.4566V17.7009Z" fill="#EBEBEB"/>
<path d="M35.734 15.4991H33.2666V17.7012H35.734V15.4991Z" fill="#F5F5F5"/>
<path d="M35.7338 15.4991H35.1455V17.7012H35.7338V15.4991Z" fill="#EBEBEB"/>
<path d="M31.8848 17.7003V17.5721H39.6585V17.7003" fill="#E0E0E0"/>
<path d="M34.4379 18.6616H33.8467V19.9252H34.4379V18.6616Z" fill="#FAFAFA"/>
<path d="M35.961 20.4214C35.961 20.4345 35.179 20.4448 34.2134 20.4448C33.2478 20.4448 32.4658 20.4345 32.4658 20.4214C32.4658 20.4082 33.2493 20.3965 34.2134 20.3965C35.1775 20.3965 35.961 20.4082 35.961 20.4214Z" fill="#E0E0E0"/>
<path d="M37.9613 18.6616H37.3701V19.9252H37.9613V18.6616Z" fill="#E0E0E0"/>
<path d="M39.4859 20.4214C39.4859 20.4345 38.7039 20.4448 37.7383 20.4448C36.7727 20.4448 35.9922 20.4345 35.9922 20.4214C35.9922 20.4082 36.7742 20.3965 37.7383 20.3965C38.7024 20.3965 39.4859 20.4082 39.4859 20.4214Z" fill="#E0E0E0"/>
<path d="M37.9613 21.17H37.3701V22.4336H37.9613V21.17Z" fill="#E0E0E0"/>
<path d="M39.4859 22.9239C39.4859 22.9371 38.7039 22.9473 37.7383 22.9473C36.7727 22.9473 35.9922 22.9371 35.9922 22.9239C35.9922 22.9108 36.7742 22.8991 37.7383 22.8991C38.7024 22.8991 39.4859 22.9239 39.4859 22.9239Z" fill="#E0E0E0"/>
<path d="M37.9613 23.754H37.3701V25.0176H37.9613V23.754Z" fill="#E0E0E0"/>
<path d="M39.4859 25.514C39.4859 25.5272 38.7039 25.5374 37.7383 25.5374C36.7727 25.5374 35.9922 25.5272 35.9922 25.514C35.9922 25.5009 36.7742 25.4892 37.7383 25.4892C38.7024 25.4892 39.4859 25.5009 39.4859 25.514Z" fill="#E0E0E0"/>
<path d="M37.9613 26.3382H37.3701V27.6018H37.9613V26.3382Z" fill="#E0E0E0"/>
<path d="M39.4859 28.097C39.4859 28.1116 38.7039 28.1218 37.7383 28.1218C36.7727 28.1218 35.9922 28.1116 35.9922 28.097C35.9922 28.0824 36.7742 28.0736 37.7383 28.0736C38.7024 28.0736 39.4859 28.0838 39.4859 28.097Z" fill="#E0E0E0"/>
<path d="M37.9613 28.8481H37.3701V30.1117H37.9613V28.8481Z" fill="#E0E0E0"/>
<path d="M39.4859 30.6079C39.4859 30.6211 38.7039 30.6313 37.7383 30.6313C36.7727 30.6313 35.9922 30.6211 35.9922 30.6079C35.9922 30.5948 36.7742 30.5831 37.7383 30.5831C38.7024 30.5831 39.4859 30.5948 39.4859 30.6079Z" fill="#E0E0E0"/>
<path d="M37.9613 31.3679H37.3701V32.6315H37.9613V31.3679Z" fill="#E0E0E0"/>
<path d="M37.9613 33.9214H37.3701V35.185H37.9613V33.9214Z" fill="#E0E0E0"/>
<path d="M39.4859 33.1279C39.4859 33.1411 38.7039 33.1513 37.7383 33.1513C36.7727 33.1513 35.9922 33.1411 35.9922 33.1279C35.9922 33.1148 36.7742 33.1046 37.7383 33.1046C38.7024 33.1046 39.4859 33.1148 39.4859 33.1279Z" fill="#E0E0E0"/>
<path d="M34.4379 21.2079H33.8467V22.4716H34.4379V21.2079Z" fill="#FAFAFA"/>
<path d="M35.961 22.968C35.961 22.9811 35.179 22.9913 34.2134 22.9913C33.2478 22.9913 32.4658 22.9811 32.4658 22.968C32.4658 22.9548 33.2493 22.9446 34.2134 22.9446C35.1775 22.9446 35.961 22.9548 35.961 22.968Z" fill="#E0E0E0"/>
<path d="M34.4379 23.7557H33.8467V25.0193H34.4379V23.7557Z" fill="#FAFAFA"/>
<path d="M35.961 25.514C35.961 25.5272 35.179 25.5389 34.2134 25.5389C33.2478 25.5389 32.4658 25.5272 32.4658 25.514C32.4658 25.5009 33.2493 25.4907 34.2134 25.4907C35.1775 25.4907 35.961 25.5009 35.961 25.514Z" fill="#E0E0E0"/>
<path d="M34.4379 26.3018H33.8467V27.5654H34.4379V26.3018Z" fill="#FAFAFA"/>
<path d="M35.961 28.0601C35.961 28.0747 35.179 28.085 34.2134 28.085C33.2478 28.085 32.4658 28.0747 32.4658 28.0601C32.4658 28.0455 33.2493 28.0367 34.2134 28.0367C35.1775 28.0367 35.961 28.0484 35.961 28.0601Z" fill="#E0E0E0"/>
<path d="M34.4379 28.8481H33.8467V30.1117H34.4379V28.8481Z" fill="#FAFAFA"/>
<path d="M35.961 30.6079C35.961 30.6211 35.179 30.6313 34.2134 30.6313C33.2478 30.6313 32.4658 30.6211 32.4658 30.6079C32.4658 30.5948 33.2493 30.5831 34.2134 30.5831C35.1775 30.5831 35.961 30.5948 35.961 30.6079Z" fill="#E0E0E0"/>
<path d="M34.4379 31.3957H33.8467V32.6593H34.4379V31.3957Z" fill="#FAFAFA"/>
<path d="M35.961 33.1542C35.961 33.1674 35.179 33.1776 34.2134 33.1776C33.2478 33.1776 32.4658 33.1674 32.4658 33.1542C32.4658 33.1411 33.2493 33.1309 34.2134 33.1309C35.1775 33.1309 35.961 33.1411 35.961 33.1542Z" fill="#E0E0E0"/>
<path d="M34.4379 33.942H33.8467V35.2056H34.4379V33.942Z" fill="#FAFAFA"/>
<path d="M48.1804 26.4058H36.8652V41.5222H48.1804V26.4058Z" fill="#EBEBEB"/>
<path d="M48.1789 26.4058H42.874V41.5222H48.1789V26.4058Z" fill="#E0E0E0"/>
<path d="M40.2539 28.4528H39.2363V30.9565H40.2539V28.4528Z" fill="#F5F5F5"/>
<path d="M40.2539 38.251H39.2363V40.7548H40.2539V38.251Z" fill="#F5F5F5"/>
<path d="M42.874 31.9388C42.874 31.9666 41.5298 31.9885 39.8704 31.9885C38.211 31.9885 36.8652 31.9666 36.8652 31.9388C36.8652 31.9111 38.2095 31.8877 39.8704 31.8877C41.5312 31.8877 42.874 31.9096 42.874 31.9388Z" fill="#F5F5F5"/>
<path d="M40.2539 33.3885H39.2363V35.8923H40.2539V33.3885Z" fill="#F5F5F5"/>
<path d="M42.874 36.8746C42.874 36.9024 41.5298 36.9257 39.8704 36.9257C38.211 36.9257 36.8652 36.9024 36.8652 36.8746C36.8652 36.8469 38.2095 36.8235 39.8704 36.8235C41.5312 36.8235 42.874 36.8469 42.874 36.8746Z" fill="#F5F5F5"/>
<path d="M45.0196 28.4528H44.002V30.9565H45.0196V28.4528Z" fill="#F5F5F5"/>
<path d="M47.2266 28.4528H46.209V30.9565H47.2266V28.4528Z" fill="#F5F5F5"/>
<path d="M45.0196 33.2026H44.002V35.7064H45.0196V33.2026Z" fill="#F5F5F5"/>
<path d="M47.2266 33.2026H46.209V35.7064H47.2266V33.2026Z" fill="#F5F5F5"/>
<path d="M45.0196 37.9538H44.002V40.4576H45.0196V37.9538Z" fill="#F5F5F5"/>
<path d="M47.2266 37.9538H46.209V40.4576H47.2266V37.9538Z" fill="#F5F5F5"/>
<path d="M49.0301 25.8787H36.0137V26.4233H49.0301V25.8787Z" fill="#E0E0E0"/>
<path d="M48.2582 26.4761C48.2582 26.5039 45.7301 26.5258 42.6108 26.5258C39.4915 26.5258 36.9619 26.5039 36.9619 26.4761C36.9619 26.4484 39.4915 26.425 42.6108 26.425C45.7301 26.425 48.2582 26.4469 48.2582 26.4761Z" fill="#EBEBEB"/>
<path d="M11.2722 41.8238H0.989145L0.944336 25.3618H11.2274L11.2722 41.8238Z" fill="#EBEBEB"/>
<path d="M11.2265 25.3618H6.08496V41.8238H11.2265V25.3618Z" fill="#E0E0E0"/>
<path d="M5.7482 22.1216H2.11719V25.3619H5.7482V22.1216Z" fill="#EBEBEB"/>
<path d="M5.74865 22.1216H4.88281V25.3619H5.74865V22.1216Z" fill="#E0E0E0"/>
<path d="M11.5278 25.173H0.0869141V25.3622H11.5278V25.173Z" fill="#E0E0E0"/>
<path d="M3.8438 26.7764H2.97363V28.6359H3.8438V26.7764Z" fill="white"/>
<path d="M6.0859 29.3661C6.0859 29.3851 4.92953 29.4012 3.51442 29.4012C2.0993 29.4012 0.947266 29.3836 0.947266 29.3661C0.947266 29.3486 2.10364 29.3311 3.51731 29.3311C4.93097 29.3311 6.0859 29.3442 6.0859 29.3661Z" fill="#E0E0E0"/>
<path d="M9.0313 26.7764H8.16113V28.6359H9.0313V26.7764Z" fill="#F5F5F5"/>
<path d="M11.2734 29.3661C11.2734 29.3851 10.117 29.4012 8.70188 29.4012C7.28676 29.4012 6.13184 29.3851 6.13184 29.3661C6.13184 29.3471 7.28821 29.3311 8.70188 29.3311C10.1155 29.3311 11.2734 29.3442 11.2734 29.3661Z" fill="#EBEBEB"/>
<path d="M9.0313 30.4678H8.16113V32.3273H9.0313V30.4678Z" fill="#F5F5F5"/>
<path d="M11.2734 33.056C11.2734 33.075 10.117 33.0911 8.70188 33.0911C7.28676 33.0911 6.13184 33.075 6.13184 33.056C6.13184 33.037 7.28821 33.0195 8.70188 33.0195C10.1155 33.0195 11.2734 33.0355 11.2734 33.056Z" fill="#EBEBEB"/>
<path d="M9.0313 34.27H8.16113V36.1296H9.0313V34.27Z" fill="#F5F5F5"/>
<path d="M11.2734 36.8588C11.2734 36.8778 10.117 36.8938 8.70188 36.8938C7.28676 36.8938 6.13184 36.8778 6.13184 36.8588C6.13184 36.8398 7.28821 36.8223 8.70188 36.8223C10.1155 36.8223 11.2734 36.834 11.2734 36.8588Z" fill="#EBEBEB"/>
<path d="M9.0313 38.071H8.16113V39.9306H9.0313V38.071Z" fill="#F5F5F5"/>
<path d="M11.2734 40.661C11.2734 40.68 10.117 40.6961 8.70188 40.6961C7.28676 40.6961 6.13184 40.68 6.13184 40.661C6.13184 40.642 7.28821 40.6245 8.70188 40.6245C10.1155 40.6245 11.2734 40.6406 11.2734 40.661Z" fill="#EBEBEB"/>
<path d="M3.8438 30.5231H2.97363V32.3826H3.8438V30.5231Z" fill="white"/>
<path d="M6.0859 33.1116C6.0859 33.1321 4.92953 33.1467 3.51442 33.1467C2.0993 33.1467 0.947266 33.1321 0.947266 33.1116C0.947266 33.0911 2.10364 33.0765 3.51731 33.0765C4.93097 33.0765 6.0859 33.0926 6.0859 33.1116Z" fill="#E0E0E0"/>
<path d="M3.8438 34.27H2.97363V36.1296H3.8438V34.27Z" fill="white"/>
<path d="M6.0859 36.8585C6.0859 36.879 4.92953 36.8951 3.51442 36.8951C2.0993 36.8951 0.947266 36.879 0.947266 36.8585C0.947266 36.8381 2.10364 36.8235 3.51731 36.8235C4.93097 36.8235 6.0859 36.8337 6.0859 36.8585Z" fill="#E0E0E0"/>
<path d="M3.8438 38.0184H2.97363V39.878H3.8438V38.0184Z" fill="white"/>
<path d="M6.0859 40.607C6.0859 40.626 4.92953 40.642 3.51442 40.642C2.0993 40.642 0.947266 40.626 0.947266 40.607C0.947266 40.588 2.10364 40.5719 3.51731 40.5719C4.93097 40.5719 6.0859 40.5865 6.0859 40.607Z" fill="#E0E0E0"/>
<path d="M51.9963 22.0352C52.0513 21.634 51.4933 21.3031 51.0741 21.2709C50.8738 21.279 50.6733 21.2618 50.4771 21.2196C50.0681 21.0732 49.899 20.5373 49.5043 20.3675C49.2051 20.2386 48.8611 20.3528 48.5706 20.5007C48.28 20.6486 47.9924 20.8345 47.67 20.855C47.3809 20.8741 47.0817 20.7672 46.836 20.9078C46.6524 21.0117 46.5556 21.2255 46.3865 21.347C46.2101 21.4565 46.0064 21.5124 45.7996 21.5081C45.5933 21.5023 45.3878 21.536 45.194 21.6076C45.0976 21.6453 45.0159 21.7136 44.9612 21.8023C44.9064 21.8911 44.8816 21.9954 44.8904 22.0996L51.9963 22.0352Z" fill="#F5F5F5"/>
<path d="M4.87899 19.2927C4.94693 18.7934 4.25165 18.3819 3.72261 18.3395C3.47399 18.319 3.21526 18.3585 2.9782 18.275C2.4665 18.0935 2.25547 17.4243 1.76401 17.2106C1.38963 17.051 0.960325 17.193 0.598958 17.3775C0.237592 17.562 -0.123775 17.7948 -0.525615 17.8167C-0.876863 17.8387 -1.25847 17.7069 -1.56635 17.8812C-1.79618 18.01 -1.91615 18.278 -2.12719 18.4361C-2.34684 18.5741 -2.60165 18.6439 -2.86004 18.6367C-3.11756 18.6309 -3.37389 18.6736 -3.61602 18.7626C-3.84874 18.871 -4.04244 19.1213 -3.99329 19.3761L4.87899 19.2927Z" fill="#F5F5F5"/>
<path d="M30.7643 32.0486H17.3777L17.3193 10.6181H30.706L30.7643 32.0486Z" fill="#C9D0E4"/>
<path d="M30.705 10.6181H24.0117V32.0486H30.705V10.6181Z" fill="#A8B1CE"/>
<path d="M24.0528 4.00474C15.6691 4.20241 8.83062 11.1251 8.63115 19.6175C8.54289 23.1036 9.58642 26.5227 11.6016 29.35L11.7562 29.5623L11.7779 29.5931L22.9658 45.0082C23.1941 45.3226 23.4937 45.5768 23.8393 45.7493C24.1849 45.9219 24.5664 46.0076 24.9516 45.9995C25.3368 45.9913 25.7145 45.8894 26.0526 45.7023C26.3908 45.5153 26.6796 45.2486 26.8946 44.9247L37.0129 29.697C38.9267 26.7394 40.2392 23.6499 40.2392 20.007C40.2392 17.8721 39.8177 15.7589 38.9994 13.7915C38.1811 11.8242 36.9825 10.0426 35.4743 8.55148C33.966 7.06039 32.1786 5.88998 30.2171 5.10914C28.2556 4.32829 26.1597 3.95279 24.0528 4.00474ZM24.4287 31.6474C22.0789 31.6476 19.7818 30.9421 17.8279 29.6199C15.874 28.2978 14.3511 26.4184 13.4517 24.2194C12.5523 22.0205 12.3168 19.6007 12.775 17.2662C13.2333 14.9317 14.3646 12.7873 16.0261 11.1041C17.6875 9.42095 19.8044 8.27465 22.109 7.81019C24.4135 7.34573 26.8024 7.58396 28.9733 8.49476C31.1442 9.40556 32.9997 10.948 34.3052 12.9271C35.6107 14.9061 36.3075 17.2329 36.3075 19.6131C36.3075 22.8045 35.056 25.8653 32.8284 28.1221C30.6007 30.3789 27.5793 31.647 24.4287 31.6474Z" fill="#5475CA"/>
<path d="M23.4571 4.00474C15.0734 4.20241 8.23492 11.1251 8.03544 19.6175C7.94719 23.1036 8.99072 26.5227 11.0059 29.35L11.1605 29.5623L11.1822 29.5931L22.3701 45.0082C22.5984 45.3226 22.898 45.5768 23.2436 45.7493C23.5892 45.9219 23.9707 46.0076 24.3559 45.9995C24.7411 45.9913 25.1188 45.8894 25.4569 45.7023C25.7951 45.5153 26.0839 45.2486 26.2989 44.9247L36.4172 29.697C38.331 26.7394 39.6435 23.6499 39.6435 20.007C39.6435 17.8721 39.222 15.7589 38.4037 13.7915C37.5854 11.8242 36.3868 10.0426 34.8786 8.55148C33.3703 7.06039 31.5829 5.88998 29.6214 5.10914C27.6599 4.32829 25.564 3.95279 23.4571 4.00474ZM23.833 31.6474C21.4832 31.6476 19.1861 30.9421 17.2322 29.6199C15.2783 28.2978 13.7554 26.4184 12.856 24.2194C11.9566 22.0205 11.7211 19.6007 12.1793 17.2662C12.6376 14.9317 13.7689 12.7873 15.4304 11.1041C17.0918 9.42095 19.2087 8.27465 21.5132 7.81019C23.8178 7.34573 26.2066 7.58396 28.3776 8.49476C30.5485 9.40556 32.404 10.948 33.7095 12.9271C35.015 14.9061 35.7118 17.2329 35.7118 19.6131C35.7118 22.8045 34.4603 25.8653 32.2327 28.1221C30.005 30.3789 26.9836 31.647 23.833 31.6474Z" fill="#6992FC"/>
<path d="M23.5726 6.39984H18.8457V10.6181H23.5726V6.39984Z" fill="#C9D0E4"/>
<path d="M23.5744 6.39984H22.4473V10.6181H23.5744V6.39984Z" fill="#A8B1CE"/>
<path d="M31.7445 10.3721H16.8506V10.6184H31.7445V10.3721Z" fill="#A8B1CE"/>
<path d="M21.0937 12.4591H19.9609V14.8799H21.0937V12.4591Z" fill="white"/>
<path d="M27.8467 12.4591H26.7139V14.8799H27.8467V12.4591Z" fill="#D4DBF2"/>
<path d="M27.8467 17.2646H26.7139V19.6854H27.8467V17.2646Z" fill="#D4DBF2"/>
<path d="M27.8467 22.2148H26.7139V24.6356H27.8467V22.2148Z" fill="#D4DBF2"/>
<path d="M27.8467 27.163H26.7139V29.5837H27.8467V27.163Z" fill="#D4DBF2"/>
<path d="M21.0937 17.3369H19.9609V19.7576H21.0937V17.3369Z" fill="white"/>
<path d="M21.0937 22.2148H19.9609V24.6356H21.0937V22.2148Z" fill="white"/>
<path d="M21.0937 27.0944H19.9609V29.5151H21.0937V27.0944Z" fill="white"/>
</g>
<defs>
<clipPath id="clip0_2173_9603">
<rect width="48" height="48" rx="24" fill="white"/>
</clipPath>
</defs>
</svg>
