<svg width="37" height="32" viewBox="0 0 37 32" fill="none" xmlns="http://www.w3.org/2000/svg">
<path d="M35.4483 14.8296L30.92 12.4603L35.44 9.4487L17.587 0.346619L0.619811 9.45073L5.13779 12.4603L0.619811 14.8296L5.18115 17.833L0.607422 20.2024L18 31.633L35.4483 20.2146L30.8849 17.8269L35.4483 14.8296ZM18.002 1.80654L32.9023 9.58327L29.2887 11.9913L18.002 19.3317L6.77111 11.9913L3.15343 9.58327L18.002 1.80654ZM6.36846 13.2759L18 20.8793L29.6872 13.2759L32.894 14.954L18.002 24.7085L3.16169 14.956L6.36846 13.2759ZM32.894 20.3308L18.002 30.0854L3.16582 20.3349L6.42215 18.6486L18 26.2582L29.646 18.6303L32.894 20.3308Z" fill="white" stroke="white" strokeMiterlimit="10"/>
</svg>
