<svg width="106" height="23" viewBox="0 0 106 23" fill="none" xmlns="http://www.w3.org/2000/svg">
<path d="M60.6553 15.2642V12.7154H67.5809V15.2417L60.6553 15.2642Z" fill="white"/>
<path d="M11.5539 6.82478L11.3205 9.19206C9.98868 9.14924 8.03736 9.12069 6.36481 9.12069C4.69225 9.12069 4.06039 9.21449 4.06039 10.5643C4.06039 11.6552 4.52086 11.9427 5.7123 12.3321L8.72497 13.3516C11.2545 14.2386 12.0804 15.6679 12.0804 17.9638C12.0804 21.53 10.5152 22.4843 6.23059 22.4843C4.3966 22.4786 2.56845 22.2797 0.777218 21.8909L0.983707 19.3932C3.90759 19.4666 5.21673 19.5094 6.23265 19.5094C8.0766 19.5094 8.58043 19.2627 8.58043 17.9862C8.58043 16.875 8.14061 16.5997 7.08132 16.2613L3.88488 15.148C1.43592 14.2753 0.581055 12.8663 0.581055 10.55C0.581055 6.941 2.26187 6.2192 6.36274 6.2192C8.11287 6.18868 9.85912 6.39239 11.5539 6.82478V6.82478Z" fill="white"/>
<path d="M17.1978 18.0719L16.0435 22.1805H12.4609L17.0367 7.41609C17.1052 7.14975 17.2637 6.91446 17.486 6.74911C17.7082 6.58376 17.981 6.49824 18.2591 6.5067H21.563C21.8404 6.49602 22.113 6.58088 22.3342 6.74677C22.5553 6.91265 22.7111 7.14925 22.7751 7.41609L27.3529 22.1805H23.8054L22.6512 18.0719H17.1978ZM20.5532 10.601C20.4376 10.1239 20.3055 9.59781 20.2332 9.12069H19.5972L19.2627 10.601L17.9329 15.3947H21.8872L20.5532 10.601Z" fill="white"/>
<path d="M28.5898 22.1804V6.50668H32.0836V22.1804H28.5898Z" fill="white"/>
<path d="M46.3905 22.1805H43.8177L43.4873 20.5921C42.8906 21.1913 42.1782 21.6662 41.3921 21.9884C40.6061 22.3107 39.7626 22.4737 38.9115 22.468C35.3516 22.468 33.8525 20.0415 33.8525 14.2957C33.8525 8.09507 35.7378 6.21104 40.9578 6.21104C42.6019 6.17126 44.2435 6.35862 45.8351 6.76768L45.5646 9.30827C43.9994 9.24506 42.4569 9.20021 41.0755 9.20021C38.4283 9.20021 37.5652 9.87919 37.5652 14.42C37.5652 18.3329 38.1847 19.5318 40.1608 19.5318C41.1654 19.5176 42.1487 19.2434 43.0124 18.7366V13.1416H46.3967L46.3905 22.1805Z" fill="white"/>
<path d="M59.0173 22.0214C56.8224 22.2518 54.1174 22.2518 51.6539 22.2518C49.5333 22.2518 48.1808 21.0284 48.1602 19.0894V9.59783C48.1602 7.66894 49.5333 6.44147 51.6539 6.44147C54.1174 6.44147 56.8533 6.44147 59.0173 6.67391L58.8563 9.23693H52.7587C52.0277 9.23693 51.6767 9.5754 51.6767 10.391V12.7807H57.9993V15.2785H51.6808V18.2962C51.6808 19.1403 52.0029 19.4808 52.7628 19.4808H58.8604L59.0173 22.0214Z" fill="white"/>
<path d="M93.2391 17.2848L91.8246 22.3191H87.4326L93.0429 4.22708C93.1261 3.90077 93.3196 3.6123 93.5915 3.40946C93.8634 3.20661 94.1973 3.10158 94.5379 3.11175H98.5975C98.9377 3.09888 99.272 3.20304 99.5431 3.40646C99.8143 3.60987 100.006 3.89992 100.084 4.22708L105.692 22.3191H101.329L99.9149 17.2848H93.2391ZM97.3523 8.12972C97.2078 7.54453 97.0467 6.90632 96.9579 6.31501H96.1774L95.7644 8.12972L93.2473 17.2848H99.9231L97.3523 8.12972Z" fill="white"/>
<path d="M88.8098 11.3552C88.8098 13.4666 88.4237 15.2913 87.6516 16.8293C86.8794 18.3672 85.8202 19.5532 84.4739 20.3874C83.1277 21.2215 81.59 21.6386 79.8609 21.6386C78.1319 21.6386 76.5942 21.2215 75.2479 20.3874C73.9017 19.5532 72.8424 18.3672 72.0703 16.8293C71.2982 15.2913 70.9121 13.4666 70.9121 11.3552C70.9121 9.24384 71.2982 7.41917 72.0703 5.88124C72.8424 4.3433 73.9017 3.15727 75.2479 2.32313C76.5942 1.489 78.1319 1.07193 79.8609 1.07193C81.59 1.07193 83.1277 1.489 84.4739 2.32313C85.8202 3.15727 86.8794 4.3433 87.6516 5.88124C88.4237 7.41917 88.8098 9.24384 88.8098 11.3552ZM86.434 11.3552C86.434 9.62181 86.1403 8.15882 85.5529 6.96626C84.9722 5.77371 84.1836 4.87115 83.187 4.25858C82.1971 3.64602 81.0884 3.33973 79.8609 3.33973C78.6334 3.33973 77.5214 3.64602 76.5249 4.25858C75.535 4.87115 74.7464 5.77371 74.159 6.96626C73.5783 8.15882 73.2879 9.62181 73.2879 11.3552C73.2879 13.0887 73.5783 14.5517 74.159 15.7442C74.7464 16.9368 75.535 17.8393 76.5249 18.4519C77.5214 19.0645 78.6334 19.3708 79.8609 19.3708C81.0884 19.3708 82.1971 19.0645 83.187 18.4519C84.1836 17.8393 84.9722 16.9368 85.5529 15.7442C86.1403 14.5517 86.434 13.0887 86.434 11.3552Z" fill="white"/>
<path fill-rule="evenodd" clip-rule="evenodd" d="M79.8613 1.68362C78.2381 1.68362 76.8165 2.07361 75.5775 2.84127C74.337 3.60984 73.3519 4.70633 72.6256 6.15293C71.9045 7.58922 71.5319 9.31681 71.5319 11.3552C71.5319 13.3937 71.9045 15.1213 72.6256 16.5575C73.3519 18.0041 74.337 19.1006 75.5775 19.8692C76.8165 20.6369 78.2381 21.0269 79.8613 21.0269C81.4845 21.0269 82.906 20.6369 84.145 19.8692C85.3855 19.1006 86.3706 18.0041 87.0969 16.5575C87.818 15.1213 88.1906 13.3937 88.1906 11.3552C88.1906 9.31681 87.818 7.58922 87.0969 6.15293C86.3706 4.70633 85.3855 3.60984 84.145 2.84127C82.906 2.07361 81.4845 1.68362 79.8613 1.68362ZM74.919 1.80497C76.3726 0.904363 78.0264 0.46022 79.8613 0.46022C81.6962 0.46022 83.3499 0.904363 84.8035 1.80497C86.2556 2.70468 87.3889 3.98025 88.2069 5.60953C89.0301 7.24911 89.4296 9.17085 89.4296 11.3552C89.4296 13.5396 89.0301 15.4614 88.2069 17.1009C87.3889 18.7302 86.2556 20.0058 84.8035 20.9055C83.3499 21.8061 81.6962 22.2503 79.8613 22.2503C78.0264 22.2503 76.3726 21.8061 74.919 20.9055C73.4669 20.0058 72.3336 18.7302 71.5156 17.1009C70.6925 15.4614 70.293 13.5396 70.293 11.3552C70.293 9.17085 70.6925 7.24911 71.5156 5.60953C72.3336 3.98025 73.4669 2.70468 74.919 1.80497ZM76.1979 3.73928C77.2972 3.06349 78.5236 2.72802 79.8613 2.72802C81.1985 2.72802 82.422 3.0633 83.5153 3.73962C84.6246 4.42166 85.4867 5.41869 86.1109 6.69986C86.7495 7.99707 87.0538 9.55698 87.0538 11.3552C87.0538 13.1534 86.7496 14.7133 86.111 16.0105C85.4869 17.2916 84.6248 18.2886 83.5156 18.9707C82.4221 19.6471 81.1986 19.9824 79.8613 19.9824C78.5236 19.9824 77.2972 19.647 76.1979 18.9712L76.1963 18.9702C75.094 18.2881 74.2326 17.2916 73.6023 16.0117L73.6011 16.0093C72.9696 14.7125 72.6688 13.1532 72.6688 11.3552C72.6688 9.55731 72.9696 7.99793 73.6011 6.70116L73.6023 6.69872L73.6023 6.69872C74.2326 5.41886 75.094 4.42233 76.1963 3.74024L76.1979 3.73928ZM76.8535 4.77733C75.9766 5.32017 75.2612 6.12821 74.7171 7.23251C74.1874 8.32066 73.9077 9.68688 73.9077 11.3552C73.9077 13.0236 74.1874 14.3898 74.717 15.4779C75.2611 16.5822 75.9765 17.3902 76.8533 17.933C77.7468 18.4821 78.7442 18.7591 79.8613 18.7591C80.9786 18.7591 81.9722 18.482 82.8584 17.9336L82.86 17.9326C83.7431 17.3897 84.4578 16.5822 84.995 15.4791L84.9962 15.4767C85.5319 14.389 85.8148 13.0233 85.8148 11.3552C85.8148 9.68714 85.5319 8.32145 84.9962 7.23379L84.995 7.23135C84.4578 6.12826 83.7431 5.32073 82.86 4.77787L82.8584 4.77691C81.9722 4.22851 80.9786 3.95142 79.8613 3.95142C78.7443 3.95142 77.7469 4.22835 76.8535 4.77733Z" fill="white"/>
<path d="M80.4268 14.5995C84.8394 16.5039 87.8604 20.7328 87.8604 20.7328C87.8604 20.7328 96.5535 9.12069 105.697 10.9456" stroke="white" strokeWidth="2" strokeMiterlimit="10"/>
</svg>
