<svg width="146" height="32" viewBox="0 0 146 32" fill="none" xmlns="http://www.w3.org/2000/svg">
<g clip-path="url(#clip0_2173_9579)">
<path d="M35.4483 14.8296L30.92 12.4603L35.44 9.4487L17.587 0.346619L0.619811 9.45073L5.13779 12.4603L0.619811 14.8296L5.18115 17.833L0.607422 20.2024L18 31.633L35.4483 20.2146L30.8849 17.8269L35.4483 14.8296ZM18.002 1.80654L32.9023 9.58327L29.2887 11.9913L18.002 19.3317L6.77111 11.9913L3.15343 9.58327L18.002 1.80654ZM6.36846 13.2759L18 20.8793L29.6872 13.2759L32.894 14.954L18.002 24.7085L3.16169 14.956L6.36846 13.2759ZM32.894 20.3308L18.002 30.0854L3.16582 20.3349L6.42215 18.6486L18 26.2582L29.646 18.6303L32.894 20.3308Z" fill="white" stroke="white" strokeMiterlimit="10"/>
<path d="M100.655 17.2642V14.7155H107.581V17.2418L100.655 17.2642Z" fill="white"/>
<path d="M51.5541 8.82475L51.3208 11.192C49.9889 11.1492 48.0376 11.1207 46.365 11.1207C44.6925 11.1207 44.0606 11.2145 44.0606 12.5643C44.0606 13.6551 44.5211 13.9426 45.7125 14.3321L48.7252 15.3516C51.2547 16.2385 52.0807 17.6679 52.0807 19.9638C52.0807 23.53 50.5155 24.4842 46.2308 24.4842C44.3968 24.4786 42.5687 24.2797 40.7775 23.8909L40.984 21.3931C43.9078 21.4665 45.217 21.5093 46.2329 21.5093C48.0768 21.5093 48.5807 21.2626 48.5807 19.9862C48.5807 18.875 48.1409 18.5997 47.0816 18.2612L43.8851 17.1479C41.4362 16.2752 40.5813 14.8663 40.5813 12.55C40.5813 8.94097 42.2621 8.21917 46.363 8.21917C48.1131 8.18865 49.8594 8.39236 51.5541 8.82475Z" fill="white"/>
<path d="M57.1978 20.0719L56.0435 24.1805H52.4609L57.0367 9.41609C57.1052 9.14975 57.2637 8.91446 57.486 8.74911C57.7082 8.58376 57.981 8.49824 58.2591 8.5067H61.563C61.8404 8.49602 62.113 8.58088 62.3342 8.74677C62.5553 8.91265 62.7111 9.14925 62.7751 9.41609L67.3529 24.1805H63.8054L62.6512 20.0719H57.1978ZM60.5532 12.601C60.4376 12.1239 60.3055 11.5978 60.2332 11.1207H59.5972L59.2627 12.601L57.9329 17.3947H61.8872L60.5532 12.601Z" fill="white"/>
<path d="M68.5898 24.1805V8.50671H72.0836V24.1805H68.5898Z" fill="white"/>
<path d="M86.3905 24.1805H83.8177L83.4873 22.5921C82.8906 23.1913 82.1782 23.6662 81.3921 23.9884C80.6061 24.3107 79.7626 24.4737 78.9115 24.468C75.3516 24.468 73.8525 22.0415 73.8525 16.2957C73.8525 10.0951 75.7378 8.21104 80.9578 8.21104C82.6019 8.17126 84.2435 8.35862 85.8351 8.76768L85.5646 11.3083C83.9994 11.2451 82.4569 11.2002 81.0755 11.2002C78.4283 11.2002 77.5652 11.8792 77.5652 16.42C77.5652 20.3329 78.1847 21.5318 80.1608 21.5318C81.1654 21.5176 82.1487 21.2434 83.0124 20.7366V15.1416H86.3967L86.3905 24.1805Z" fill="white"/>
<path d="M99.0173 24.0214C96.8224 24.2518 94.1174 24.2518 91.6539 24.2518C89.5333 24.2518 88.1808 23.0284 88.1602 21.0894V11.5978C88.1602 9.66894 89.5333 8.44147 91.6539 8.44147C94.1174 8.44147 96.8533 8.44147 99.0173 8.67391L98.8563 11.2369H92.7587C92.0277 11.2369 91.6767 11.5754 91.6767 12.391V14.7807H97.9993V17.2785H91.6808V20.2962C91.6808 21.1403 92.0029 21.4808 92.7628 21.4808H98.8604L99.0173 24.0214Z" fill="white"/>
<path d="M133.239 19.2848L131.825 24.3191H127.432L133.043 6.22711C133.126 5.9008 133.319 5.61233 133.591 5.40949C133.863 5.20665 134.197 5.10161 134.538 5.11178H138.597C138.938 5.09891 139.272 5.20307 139.543 5.40649C139.814 5.6099 140.005 5.89995 140.084 6.22711L145.692 24.3191H141.329L139.915 19.2848H133.239ZM137.352 10.1298C137.208 9.54456 137.047 8.90635 136.958 8.31504H136.177L135.764 10.1298L133.247 19.2848H139.923L137.352 10.1298Z" fill="white"/>
<path d="M128.81 13.3552C128.81 15.4666 128.424 17.2913 127.652 18.8292C126.879 20.3672 125.82 21.5532 124.474 22.3873C123.128 23.2215 121.59 23.6385 119.861 23.6385C118.132 23.6385 116.594 23.2215 115.248 22.3873C113.902 21.5532 112.842 20.3672 112.07 18.8292C111.298 17.2913 110.912 15.4666 110.912 13.3552C110.912 11.2438 111.298 9.41914 112.07 7.88121C112.842 6.34327 113.902 5.15724 115.248 4.3231C116.594 3.48897 118.132 3.0719 119.861 3.0719C121.59 3.0719 123.128 3.48897 124.474 4.3231C125.82 5.15724 126.879 6.34327 127.652 7.88121C128.424 9.41914 128.81 11.2438 128.81 13.3552ZM126.434 13.3552C126.434 11.6218 126.14 10.1588 125.553 8.96623C124.972 7.77368 124.184 6.87112 123.187 6.25855C122.197 5.64599 121.088 5.3397 119.861 5.3397C118.633 5.3397 117.521 5.64599 116.525 6.25855C115.535 6.87112 114.746 7.77368 114.159 8.96623C113.578 10.1588 113.288 11.6218 113.288 13.3552C113.288 15.0886 113.578 16.5516 114.159 17.7442C114.746 18.9367 115.535 19.8393 116.525 20.4519C117.521 21.0644 118.633 21.3707 119.861 21.3707C121.088 21.3707 122.197 21.0644 123.187 20.4519C124.184 19.8393 124.972 18.9367 125.553 17.7442C126.14 16.5516 126.434 15.0886 126.434 13.3552Z" fill="white"/>
<path fill-rule="evenodd" clip-rule="evenodd" d="M119.861 3.6836C118.238 3.6836 116.816 4.0736 115.578 4.84125C114.337 5.60982 113.352 6.70631 112.626 8.15291C111.905 9.5892 111.532 11.3168 111.532 13.3552C111.532 15.3936 111.905 17.1212 112.626 18.5575C113.352 20.0041 114.337 21.1006 115.578 21.8692C116.816 22.6368 118.238 23.0268 119.861 23.0268C121.484 23.0268 122.906 22.6368 124.145 21.8692C125.385 21.1006 126.371 20.0041 127.097 18.5575C127.818 17.1212 128.191 15.3936 128.191 13.3552C128.191 11.3168 127.818 9.5892 127.097 8.15291C126.371 6.70631 125.385 5.60982 124.145 4.84125C122.906 4.0736 121.484 3.6836 119.861 3.6836ZM114.919 3.80496C116.373 2.90435 118.026 2.46021 119.861 2.46021C121.696 2.46021 123.35 2.90435 124.804 3.80496C126.256 4.70466 127.389 5.98024 128.207 7.60951C129.03 9.2491 129.43 11.1708 129.43 13.3552C129.43 15.5396 129.03 17.4613 128.207 19.1009C127.389 20.7302 126.256 22.0058 124.804 22.9055C123.35 23.8061 121.696 24.2502 119.861 24.2502C118.026 24.2502 116.373 23.8061 114.919 22.9055C113.467 22.0058 112.334 20.7302 111.516 19.1009C110.692 17.4613 110.293 15.5396 110.293 13.3552C110.293 11.1708 110.692 9.2491 111.516 7.60951C112.334 5.98024 113.467 4.70466 114.919 3.80496ZM116.198 5.73926C117.297 5.06347 118.524 4.72801 119.861 4.72801C121.199 4.72801 122.422 5.06328 123.515 5.73961C124.625 6.42165 125.487 7.41867 126.111 8.69984C126.75 9.99705 127.054 11.557 127.054 13.3552C127.054 15.1534 126.75 16.7133 126.111 18.0105C125.487 19.2916 124.625 20.2886 123.516 20.9707C122.422 21.6471 121.199 21.9824 119.861 21.9824C118.524 21.9824 117.297 21.647 116.198 20.9712L116.196 20.9702C115.094 20.2881 114.233 19.2916 113.602 18.0117L113.601 18.0093C112.97 16.7125 112.669 15.1531 112.669 13.3552C112.669 11.5573 112.97 9.99791 113.601 8.70115L113.602 8.69871L113.602 8.69871C114.233 7.41885 115.094 6.42232 116.196 5.74023L116.198 5.73926ZM116.854 6.77731C115.977 7.32015 115.261 8.12819 114.717 9.23249C114.187 10.3206 113.908 11.6869 113.908 13.3552C113.908 15.0235 114.187 16.3897 114.717 17.4779C115.261 18.5821 115.976 19.3902 116.853 19.933C117.747 20.4821 118.744 20.759 119.861 20.759C120.979 20.759 121.972 20.4819 122.858 19.9336L122.86 19.9326C123.743 19.3897 124.458 18.5822 124.995 17.4791L124.996 17.4767C125.532 16.389 125.815 15.0233 125.815 13.3552C125.815 11.6871 125.532 10.3214 124.996 9.23377L124.995 9.23133C124.458 8.12824 123.743 7.32071 122.86 6.77786L122.858 6.77689C121.972 6.2285 120.979 5.95141 119.861 5.95141C118.744 5.95141 117.747 6.22833 116.854 6.77731Z" fill="white"/>
<path d="M120.427 16.5994C124.839 18.5039 127.86 22.7327 127.86 22.7327C127.86 22.7327 136.554 11.1207 145.697 12.9456" stroke="white" strokeWidth="2" strokeMiterlimit="10"/>
</g>
<defs>
<clipPath id="clip0_2173_9579">
<rect width="146" height="32" fill="white"/>
</clipPath>
</defs>
</svg>
